<svg id="Layer_1" data-name="Layer 1" xmlns="http://www.w3.org/2000/svg" viewBox="0 0 198 100.36"><defs><style>.cls-1{fill:#f4eb29}.cls-2{fill:#f5eb2b}.cls-3,.cls-7{fill:#fff}.cls-4{fill:#70cbd0}.cls-4,.cls-5,.cls-6,.cls-7{stroke:#000;stroke-linecap:round;stroke-linejoin:round;stroke-width:.71px}.cls-5{fill:none}.cls-8{font-size:7.64px;fill:#ef4523;font-family:Myriad Pro}</style></defs><title>chrv_logo</title><path class="cls-1" d="M38.11,107.34a62.19,62.19,0,1,1,124.38,0" transform="translate(-1 -7.66)"/><path class="cls-2" d="M49.22,99.62c0.39-3.35.66-6.12,0.59-6.18s-10.13-2.76-22.37-6.05S5,81.27,4.82,81.07c-1.45-1.38,2.89-.46,23.09,5l22.76,6.18L51.32,90a35.33,35.33,0,0,1,2.3-5.66c0.92-1.78,1.45-3.35,1.18-3.49-1-.33-38-21.71-39.34-22.69-0.72-.53-1.12-1.18-0.92-1.38S24,61.53,34.94,67.91,55.14,79.49,55.33,79.56s2-2,4.08-4.54L63,70.28,46.39,53.64C37.18,44.5,29.88,36.73,30.08,36.4s8,7,17.23,16.25L64.15,69.43l3.35-2.76a57.12,57.12,0,0,1,4.8-3.75l1.51-1-2.63-4.28c-9.28-15.26-21.12-36.51-20.66-37,0.26-.26,1.25.72,2.1,2.24s5.59,9.8,10.52,18.29S72.7,57.72,73.36,59l1.32,2.5a17.84,17.84,0,0,0,3-1.45,35.55,35.55,0,0,1,5.72-2.43c2.37-.72,2.7-1,2.3-2.17C84.21,50.75,73.82,11.21,74.08,11s0.53,0,.86.33C75.53,12,86.84,54,86.84,55.61c0,0.59.46,0.72,1.51,0.46a50.66,50.66,0,0,1,6.25-.86l4.74-.39V31.27c0-15.33.26-23.62,0.66-23.62s0.66,8.29.66,23.62V54.82l4.8,0.39c2.57,0.26,5.39.59,6.12,0.79,1.25,0.39,1.51.07,2.24-3.09,1.71-7.17,11.12-41.44,11.45-41.84,1.38-1.38.46,3-5,23.09l-6.18,22.69,2.63,0.79A44,44,0,0,1,122.5,60l3.09,1.51,3.55-6.38c11.77-20.85,20.13-34.86,20.46-34.4s-11.71,22-21.12,37.89l-1.91,3.29,4.87,3.68,4.87,3.68,16.51-16.64c9-9.14,16.71-16.45,17.1-16.18s-7,8-16.31,17.3-16.64,17-16.25,17.17c0.79,0.26,6.45,7.43,6.84,8.62,0.2,0.53.92,0.33,2.24-.53,1.05-.79,9-5.46,17.7-10.46S181,58.77,182.49,57.85c1.64-1.05,2.76-1.38,3.16-1s0.13,0.92-.86,1.45c-2.83,1.45-38.42,21.9-38.94,22.43-0.33.2,0,1.58,0.72,3a40.74,40.74,0,0,1,2.1,5.33c0.46,1.58,1.18,2.83,1.58,2.83s10.66-2.7,22.76-5.92,22.23-5.66,22.5-5.39-9.74,3.29-22.3,6.71-23,6.18-23,6.25a13.57,13.57,0,0,0,.39,2.37,60.61,60.61,0,0,1,1.05,6l0.39,3.82H48.21Z" transform="translate(-1 -7.66)"/><path class="cls-2" d="M48.21,106.32" transform="translate(-1 -7.66)"/><path class="cls-3" d="M1,108a1086.64,1086.64,0,0,1,198,0" transform="translate(-1 -7.66)"/><g id="LWPOLYLINE"><path class="cls-4" d="M90.39,61.12c-2.52.08-7.85,0.29-10.29,0.66a35.91,35.91,0,0,0-7,1.73,12.91,12.91,0,0,0-5.71,3.58c-1.61,2-2.07,4.87-2.66,7.56A44.92,44.92,0,0,0,63.49,81a39.92,39.92,0,0,0,.4,6.9c0.22,2,.37,4.07.53,6.1l40.24,11" transform="translate(-1 -7.66)"/><polyline class="cls-4" points="89.39 53.46 123.62 52.76 127.14 53.62 130.53 55.74 133.58 59.79 134.72 64.14 136.05 72.37 136.65 79.94 135.38 85.64 133.55 87.17 103.67 97.38"/></g><g id="LINE"><line class="cls-5" x1="113.7" y1="93.95" x2="113.7" y2="93.95"/></g><g id="LINE-2" data-name="LINE"><line class="cls-5" x1="113.7" y1="93.95" x2="136.08" y2="93.95"/></g><g id="LINE-3" data-name="LINE"><line class="cls-5" x1="136.08" y1="93.95" x2="143" y2="95.4"/></g><g id="LINE-4" data-name="LINE"><line class="cls-5" x1="136.08" y1="93.95" x2="128.23" y2="88.98"/></g><g id="LWPOLYLINE-2" data-name="LWPOLYLINE"><polyline class="cls-6" points="73.54 89.3 74.01 92.76 75.2 94.78 76.53 95.67 78.23 96.22 80.17 95.3 80.72 93.74 81.39 91.29"/></g><g id="LINE-5" data-name="LINE"><line class="cls-5" x1="88.35" y1="93.19" x2="86.75" y2="56.31"/></g><g id="LINE-6" data-name="LINE"><line class="cls-5" x1="86.75" y1="56.31" x2="77.95" y2="56.31"/></g><g id="LINE-7" data-name="LINE"><line class="cls-5" x1="77.95" y1="56.31" x2="79.79" y2="90.85"/></g><g id="LINE-8" data-name="LINE"><line class="cls-5" x1="85.56" y1="72.35" x2="85.56" y2="60.62"/></g><g id="LINE-9" data-name="LINE"><polyline class="cls-7" points="85.56 60.62 79.42 60.89 79.97 72.35 85.56 72.35"/></g><g id="LINE-10" data-name="LINE"><polyline class="cls-7" points="88.41 68.25 98.75 68.18 98.69 60.4 88.34 60.47"/></g><g id="LINE-11" data-name="LINE"><line class="cls-5" x1="88.41" y1="68.25" x2="88.36" y2="60.47"/></g><g id="LINE-12" data-name="LINE"><polyline class="cls-7" points="110.84 64.31 111.47 72.88 130.66 69.51 130.18 62.9 110.69 64.32"/></g><g id="LINE-13" data-name="LINE"><line class="cls-5" x1="116.89" y1="63.87" x2="117.45" y2="71.83"/></g><g id="LINE-14" data-name="LINE"><line class="cls-5" x1="121.53" y1="63.53" x2="122.35" y2="70.97"/></g><g id="LINE-15" data-name="LINE"><line class="cls-5" x1="125.37" y1="63.25" x2="126.66" y2="70.22"/></g><g id="LINE-16" data-name="LINE"><line class="cls-5" x1="93.52" y1="60.43" x2="93.52" y2="68.21"/></g><g id="MTEXT"><text class="cls-8" transform="matrix(0.85, -0.31, -0.08, 1, 135.16, 80.76)"></text></g><g id="LWPOLYLINE-3" data-name="LWPOLYLINE"><path class="cls-4" d="M104.52,105" transform="translate(-1 -7.66)"/><path class="cls-5" d="M104.52,105a23.52,23.52,0,0,0,1.59-4.16,20,20,0,0,0,.43-4.3,49.93,49.93,0,0,0-.29-6.85c-0.3-2.52-.85-5-1.3-7.52-0.57-3.2-1-6.39-1.59-9.67a14.91,14.91,0,0,0-2.17-6,12.43,12.43,0,0,0-3-2.82,17,17,0,0,0-5.34-2.55" transform="translate(-1 -7.66)"/></g></svg>